# xmcd CD database file
#
# Track frame offsets:
#	150
#	13117
#	28513
#	39468
#	53091
#	65716
#	79423
#	93709
#	108008
#	120345
#	132985
#	144809
#	158641
#	171327
#	183806
#	195393
#	207415
#	220862
#	233687
#	245275
#	258724
#	271644
#
# Disc length: 3797 seconds
#
# Revision: 3
# Processed by: cddbd v1.5.2PL0 Copyright (c) Steve Scherf et al.
# Submitted via: CDex 1.51
#
DISCID=290ed316
DTITLE=Sonny Parker - with Lionel Hampton  {1949-1951}
DYEAR=2002
DGENRE=Jazz
TTITLE0=What's Happenin' Baby   [Lionel Hampton Sextet, 1949]
TTITLE1=Drinkin' Wine Spo-De O-Dee   [Lionel Hampton Sextet, 1949]
TTITLE2=For You My Love   [Lionel Hampton and His Orchestra, 1949]
TTITLE3=How You Sound   [Lionel Hampton and His Orchestra, 1950]
TTITLE4=Sad Feeling   [Lionel Hampton and His Orchestra, 1950]
TTITLE5=Jelly Roll   [Lionel Hampton and His Orchestra, 1950]
TTITLE6=Cannon Ball Express   [Lionel Hampton and His Orchestra, 1950]
TTITLE7=Well Oh Well   [Lionel Hampton and His Orchestra, 1950]
TTITLE8=Boogie Woogie Santa Claus   [Lionel Hampton and His Orchestra, 1950]
TTITLE9=Cryin'   [Lionel Hampton and His Orchestra, 1951]
TTITLE10=Helpless   [Lionel Hampton and His Orchestra, 1951]
TTITLE11=Jumpin' With G.H.   [Lionel Hampton and His Orchestra, 1951]
TTITLE12=Hamp's Gumbo   [Sonny Parker and His All Stars, 1949]
TTITLE13=Pretty Baby   [Sonny Parker and His All Stars, 1949]
TTITLE14=Sad Feeling   [Sonny Parker and His All Stars, 1949]
TTITLE15=I Want A Little Girl   [Sonny Parker and His All Stars, 1949]
TTITLE16=Rockin' With G.H. (Say Little Girl)   [Sonny Parker with Gene Morris and His Hamptones, 1950]
TTITLE17=Carlena's Blues (Say Little Girl)   [Sonny Parker with Gene Morris and His Hamptones, 1950]
TTITLE18=Money Aint't Everything (Say Little Girl)  [Sonny Parker with Gladys Hamton's Blues Boys, 1951]
TTITLE19=Disgusted Blues   [Sonny Parker with Gladys Hamton's Blues Boys, 1951]
TTITLE20=She Sets My Soul On Fire   [Sonny Parker with Gladys Hamton's Blues Boys, 1951]
TTITLE21=Worried Life Blues   [Sonny Parker with Gladys Hamton's Blues Boys, 1951]
EXTD=YEAR: 2002
EXTT0=
EXTT1=
EXTT2=
EXTT3=
EXTT4=
EXTT5=
EXTT6=
EXTT7=
EXTT8=
EXTT9=
EXTT10=
EXTT11=
EXTT12=
EXTT13=
EXTT14=
EXTT15=
EXTT16=
EXTT17=
EXTT18=
EXTT19=
EXTT20=
EXTT21=
PLAYORDER=
